HIERARCHY
ROOT Hips
{
    OFFSET   0.000000   0.000000   0.000000
    CHANNELS 6 Xposition Yposition Zposition Zrotation Xrotation Yrotation
    JOINT Chest
    {
        OFFSET   0.000000   8.007230   0.000000
        CHANNELS 3 Zrotation Xrotation Yrotation
        JOINT Chest2
        {
            OFFSET   0.000000  22.077100   0.000000
            CHANNELS 3 Zrotation Xrotation Yrotation
            JOINT Neck
            {
                OFFSET   0.000000  23.254800   0.000000
                CHANNELS 3 Zrotation Xrotation Yrotation
                JOINT Head
                {
                    OFFSET   0.000010  14.370000   1.956600
                    CHANNELS 3 Zrotation Xrotation Yrotation
                    End Site
                    {
                        OFFSET   0.000000  19.566000   0.000000
                    }
                }
            }
            JOINT LeftCollar
            {
                OFFSET   3.911900  19.017000  -0.467062
                CHANNELS 3 Zrotation Xrotation Yrotation
                JOINT LeftShoulder
                {
                    OFFSET  10.383700   0.000000   0.000000
                    CHANNELS 3 Zrotation Xrotation Yrotation
                    JOINT LeftElbow
                    {
                        OFFSET  26.662100   0.001193   0.000835
                        CHANNELS 3 Zrotation Xrotation Yrotation
                        JOINT LeftWrist
                        {
                            OFFSET  28.869000  -0.000058  -0.000075
                            CHANNELS 3 Zrotation Xrotation Yrotation
                            JOINT LeftFinger0
                            {
                                OFFSET   2.044660  -2.323460   3.252850
                                CHANNELS 3 Zrotation Xrotation Yrotation
                                JOINT LeftFinger01
                                {
                                    OFFSET   3.088130   0.000000   0.000000
                                    CHANNELS 3 Zrotation Xrotation Yrotation
                                    JOINT LeftFinger02
                                    {
                                        OFFSET   2.639450   0.000000   0.000000
                                        CHANNELS 3 Zrotation Xrotation Yrotation
                                        End Site
                                        {
                                            OFFSET   2.582190   0.000000   0.000000
                                        }
                                    }
                                }
                            }
                            JOINT LeftFinger1
                            {
                                OFFSET   8.364480   0.000000   3.252850
                                CHANNELS 3 Zrotation Xrotation Yrotation
                                JOINT LeftFinger11
                                {
                                    OFFSET   4.646920   0.000000   0.000000
                                    CHANNELS 3 Zrotation Xrotation Yrotation
                                    JOINT LeftFinger12
                                    {
                                        OFFSET   2.323460   0.000000   0.000000
                                        CHANNELS 3 Zrotation Xrotation Yrotation
                                        End Site
                                        {
                                            OFFSET   2.273050   0.000000   0.000000
                                        }
                                    }
                                }
                            }
                            JOINT LeftFinger2
                            {
                                OFFSET   8.364490   0.000016   1.078090
                                CHANNELS 3 Zrotation Xrotation Yrotation
                                JOINT LeftFinger21
                                {
                                    OFFSET   5.111620   0.000000   0.000000
                                    CHANNELS 3 Zrotation Xrotation Yrotation
                                    JOINT LeftFinger22
                                    {
                                        OFFSET   2.788150   0.000012   0.000000
                                        CHANNELS 3 Zrotation Xrotation Yrotation
                                        End Site
                                        {
                                            OFFSET   2.727660   0.000000   0.000000
                                        }
                                    }
                                }
                            }
                            JOINT LeftFinger3
                            {
                                OFFSET   7.899780   0.000014  -1.078090
                                CHANNELS 3 Zrotation Xrotation Yrotation
                                JOINT LeftFinger31
                                {
                                    OFFSET   4.646930   0.000000   0.000000
                                    CHANNELS 3 Zrotation Xrotation Yrotation
                                    JOINT LeftFinger32
                                    {
                                        OFFSET   2.323470   0.000000   0.000000
                                        CHANNELS 3 Zrotation Xrotation Yrotation
                                        End Site
                                        {
                                            OFFSET   2.273050   0.000000   0.000000
                                        }
                                    }
                                }
                            }
                            JOINT LeftFinger4
                            {
                                OFFSET   7.435090   0.000000  -3.252850
                                CHANNELS 3 Zrotation Xrotation Yrotation
                                JOINT LeftFinger41
                                {
                                    OFFSET   3.717550   0.000000   0.000000
                                    CHANNELS 3 Zrotation Xrotation Yrotation
                                    JOINT LeftFinger42
                                    {
                                        OFFSET   1.858770   0.000000   0.000000
                                        CHANNELS 3 Zrotation Xrotation Yrotation
                                        End Site
                                        {
                                            OFFSET   1.818440   0.000000   0.000000
                                        }
                                    }
                                }
                            }
                        }
                    }
                }
            }
            JOINT RightCollar
            {
                OFFSET  -3.911900  19.017000  -0.467063
                CHANNELS 3 Zrotation Xrotation Yrotation
                JOINT RightShoulder
                {
                    OFFSET -10.383700   0.000023   0.000000
                    CHANNELS 3 Zrotation Xrotation Yrotation
                    JOINT RightElbow
                    {
                        OFFSET -26.662100   0.001246   0.001011
                        CHANNELS 3 Zrotation Xrotation Yrotation
                        JOINT RightWrist
                        {
                            OFFSET -28.869000  -0.000026  -0.000078
                            CHANNELS 3 Zrotation Xrotation Yrotation
                            JOINT RightFinger0
                            {
                                OFFSET  -2.044660  -2.323490   3.252850
                                CHANNELS 3 Zrotation Xrotation Yrotation
                                JOINT RightFinger01
                                {
                                    OFFSET  -3.088130   0.000000   0.000000
                                    CHANNELS 3 Zrotation Xrotation Yrotation
                                    JOINT RightFinger02
                                    {
                                        OFFSET  -2.639460   0.000000   0.000000
                                        CHANNELS 3 Zrotation Xrotation Yrotation
                                        End Site
                                        {
                                            OFFSET  -2.582190   0.000000   0.000000
                                        }
                                    }
                                }
                            }
                            JOINT RightFinger1
                            {
                                OFFSET  -8.364480   0.000000   3.252850
                                CHANNELS 3 Zrotation Xrotation Yrotation
                                JOINT RightFinger11
                                {
                                    OFFSET  -4.646920   0.000000   0.000000
                                    CHANNELS 3 Zrotation Xrotation Yrotation
                                    JOINT RightFinger12
                                    {
                                        OFFSET  -2.323470   0.000000   0.000000
                                        CHANNELS 3 Zrotation Xrotation Yrotation
                                        End Site
                                        {
                                            OFFSET  -2.273050   0.000000   0.000000
                                        }
                                    }
                                }
                            }
                            JOINT RightFinger2
                            {
                                OFFSET  -8.364480   0.000000   1.078090
                                CHANNELS 3 Zrotation Xrotation Yrotation
                                JOINT RightFinger21
                                {
                                    OFFSET  -5.111620   0.000000   0.000000
                                    CHANNELS 3 Zrotation Xrotation Yrotation
                                    JOINT RightFinger22
                                    {
                                        OFFSET  -2.788160   0.000000   0.000000
                                        CHANNELS 3 Zrotation Xrotation Yrotation
                                        End Site
                                        {
                                            OFFSET  -2.727660   0.000000   0.000000
                                        }
                                    }
                                }
                            }
                            JOINT RightFinger3
                            {
                                OFFSET  -7.899780   0.000000  -1.078090
                                CHANNELS 3 Zrotation Xrotation Yrotation
                                JOINT RightFinger31
                                {
                                    OFFSET  -4.646930   0.000000   0.000000
                                    CHANNELS 3 Zrotation Xrotation Yrotation
                                    JOINT RightFinger32
                                    {
                                        OFFSET  -2.323470   0.000000   0.000000
                                        CHANNELS 3 Zrotation Xrotation Yrotation
                                        End Site
                                        {
                                            OFFSET  -2.273050   0.000000   0.000000
                                        }
                                    }
                                }
                            }
                            JOINT RightFinger4
                            {
                                OFFSET  -7.435090   0.000000  -3.252850
                                CHANNELS 3 Zrotation Xrotation Yrotation
                                JOINT RightFinger41
                                {
                                    OFFSET  -3.717550   0.000000   0.000000
                                    CHANNELS 3 Zrotation Xrotation Yrotation
                                    JOINT RightFinger42
                                    {
                                        OFFSET  -1.858760   0.000000   0.000000
                                        CHANNELS 3 Zrotation Xrotation Yrotation
                                        End Site
                                        {
                                            OFFSET  -1.818440   0.000000   0.000000
                                        }
                                    }
                                }
                            }
                        }
                    }
                }
            }
        }
    }
    JOINT LeftHip
    {
        OFFSET   9.783010   0.000000   0.000000
        CHANNELS 3 Zrotation Xrotation Yrotation
        JOINT LeftKnee
        {
            OFFSET   0.000073 -41.789100   0.001749
            CHANNELS 3 Zrotation Xrotation Yrotation
            JOINT LeftAnkle
            {
                OFFSET   0.000111 -41.133200  -0.000179
                CHANNELS 3 Zrotation Xrotation Yrotation
                JOINT LeftToe
                {
                    OFFSET   0.000000  -6.358960  14.674500
                    CHANNELS 3 Zrotation Xrotation Yrotation
                    End Site
                    {
                        OFFSET   0.000000   0.000000   3.913200
                    }
                }
            }
        }
    }
    JOINT RightHip
    {
        OFFSET  -9.783010   0.000000   0.000000
        CHANNELS 3 Zrotation Xrotation Yrotation
        JOINT RightKnee
        {
            OFFSET   0.000424 -41.789200   0.005205
            CHANNELS 3 Zrotation Xrotation Yrotation
            JOINT RightAnkle
            {
                OFFSET   0.000000 -41.133200  -0.000155
                CHANNELS 3 Zrotation Xrotation Yrotation
                JOINT RightToe
                {
                    OFFSET   0.000000  -6.358960  14.674500
                    CHANNELS 3 Zrotation Xrotation Yrotation
                    End Site
                    {
                        OFFSET   0.000000   0.000000   3.913200
                    }
                }
            }
        }
    }
}
MOTION
Frames: 4
Frame Time:   0.016667
 -0.566805  89.522700   1.573900  -4.801160 -14.063400  -6.846670   1.003950   8.881870  -3.022620   2.528510  17.696500  -6.312600   1.118600   2.179470  -0.042734   1.853650   4.419550  14.525000  -2.957640 -10.931800  -4.765450 -38.739500 -19.050100 -91.579100  19.145000 -21.776400 -38.805300  13.648100   2.015900 -16.876600  30.543900  53.914600 -72.992700 -67.359000  -0.006337   0.014461 -38.201100  -0.006057   0.002201  -3.506960   0.576265  -8.957120  -2.912350   0.009622  -0.003272  -2.038630   0.006783  -0.002423  -7.304930   0.868502  -6.626240  -7.358860   0.011762  -0.002980  -4.901020   0.007938   0.003037 -69.063900  -5.399590   2.064380 -69.160900  -0.002977   0.000366 -51.870700  -0.001260  -0.002082 -68.283700  -9.296760   3.687830 -102.875000  -0.007469   0.007388 -68.514600  -0.006348  -0.002985  16.658200  -6.452810  11.188800  63.776600  19.287800  -2.817850  -4.226460  -4.498490  15.889400 -12.731900  -6.533260   4.944910 -39.777600  30.120400  60.730000  28.211400   0.000812  -0.002293   9.105670   0.000798  -0.003370  27.460800   8.178220  15.302600  23.369800  -0.001771   0.001240  16.358800   0.004110  -0.000218  28.207500   2.649730   4.924060  34.393300   0.000210   0.005238  22.906000   0.001580  -0.001536  28.657600   2.687980   4.903430  41.612300  -0.004947  -0.000351  27.713800  -0.000673   0.002678  32.886200   0.697611   1.079560  49.343600  -0.004235  -0.000989  32.862900  -0.001415  -0.001567   3.199080  17.698000   6.695600   1.213180   0.041470   8.517070  -1.595750  -3.639770   2.921810   0.000000   0.000000   0.000000   3.657290  15.218700   0.201091  -0.553525   2.722790  -5.654110  -0.412312  -4.084510   0.678528  -0.000000   0.000000  -0.000000
 -0.561099  89.516400   1.538600  -4.901070 -13.918600  -7.268670   1.040740   8.843720  -3.012380   2.604060  17.617300  -6.303180   1.044020   2.059390  -0.037547   1.721260   4.171970  14.755300  -2.623480 -10.570200  -4.596090 -38.335900 -20.691900 -91.814400  19.201400 -21.057900 -36.772000  13.409200   1.901520 -16.126200  30.554300  53.437700 -73.380800 -66.867100   0.008259   0.019433 -37.873500  -0.000286   0.009459  -3.870050   0.686773 -10.093900  -3.224470  -0.001608   0.003212  -2.257120  -0.001193   0.002219  -7.688220   1.022140  -7.516740  -7.764110  -0.003189   0.002276  -5.170920  -0.002253   0.002856 -69.271400  -5.388550   2.031050 -69.366300  -0.002580  -0.006852 -52.024800   0.003165  -0.006243 -68.828700  -9.346070   3.594580 -103.684000   0.004458  -0.011018 -69.053800   0.007949   0.000000  16.691800  -6.388270  11.098400  63.584800  18.686200  -2.748380  -4.494070  -4.107980  16.215800 -12.832100  -7.089410   4.911150 -39.736300  30.087200  60.521700  28.305400   0.000672  -0.002342   9.152670   0.000767  -0.003398  27.647700   8.157260  15.153000  23.511200  -0.001794   0.001231  16.457800   0.004031  -0.000264  28.229100   2.561390   4.756720  34.530400   0.000207   0.005211  22.997300   0.001627  -0.001579  28.662300   2.597540   4.737250  42.134100  -0.004903  -0.000361  28.061400  -0.000681   0.002636  33.818000   0.502239   0.748004  50.735400  -0.003975  -0.000989  33.789800  -0.001411  -0.001583   3.184520  17.613700   6.740980   1.206730   0.051375   8.743390  -1.571460  -3.679420   3.067430  -0.000000   0.000000  -0.000000   3.651240  15.001900   0.227337  -0.566719   2.785440  -5.439830  -0.405540  -4.039190   0.864309  -0.000000   0.000000   0.000000
 -0.564492  89.509100   1.530840  -4.998690 -13.763300  -7.720710   1.048660   8.788410  -2.947090   2.612770  17.507900  -6.173630   1.044440   1.969040  -0.036293   1.703030   3.989930  14.915400  -2.328170 -10.201400  -4.366210 -38.087600 -21.487400 -92.082200  19.477000 -19.722900 -35.941900  13.342800   1.873590 -16.146700  30.581200  52.939000 -73.316100 -65.869900   0.003504   0.012030 -37.209400  -0.000239   0.006861  -3.641210   0.722532 -11.292200  -3.044960  -0.001681   0.003086  -2.131480  -0.000698   0.002943  -7.551640   1.158900  -8.656790  -7.647840  -0.003212   0.002248  -5.093490  -0.002221   0.002686 -69.098700  -5.400440   2.056620 -69.195300  -0.002095  -0.006986 -51.896500   0.003184  -0.006909 -68.711900  -9.335150   3.614870 -103.511000   0.004345  -0.006228 -68.938300   0.007932   0.000606  16.712500  -6.286000  11.060500  63.592300  17.896100  -2.820130  -4.775090  -3.707620  16.576200 -12.914300  -7.733990   4.866530 -39.715500  30.171000  60.509700  28.434200   0.000534  -0.002384   9.217090   0.000738  -0.003424  27.883900   8.126990  14.958200  23.689300  -0.001815   0.001215  16.582500   0.003956  -0.000309  28.266500   2.459310   4.561760  34.797200   0.000203   0.005185  23.175000   0.001677  -0.001624  28.750600   2.497630   4.541060  42.693800  -0.004860  -0.000364  28.434100  -0.000684   0.002592  34.774800   0.289322   0.416703  52.165000  -0.003808  -0.000987  34.741900  -0.001415  -0.001596   3.156590  17.531200   6.735690   1.196150   0.069499   8.999030  -1.547790  -3.751430   3.262970  -0.000000   0.000000  -0.000000   3.616730  14.801700   0.214381  -0.565774   2.783030  -5.193600  -0.390418  -3.980810   1.087550   0.000000   0.000000   0.000000
 -0.574393  89.501500   1.529730  -5.095040 -13.617000  -8.164530   1.034850   8.729690  -2.841230   2.557260  17.394400  -5.948550   1.048050   1.901710  -0.036113   1.727060   3.852290  14.982200  -2.153240  -9.866460  -4.153760 -37.967100 -21.684100 -92.210300  20.141200 -18.503700 -35.572100  13.327500   1.868660 -16.248600  30.380600  52.365900 -72.927900 -65.219100  -0.001956   0.003939 -36.776000  -0.000191   0.003679  -3.406160   0.726220 -11.983600  -2.850010  -0.001691   0.002849  -1.995010   0.000152   0.003179  -7.430660   1.229970  -9.345390  -7.531570  -0.003216   0.002180  -5.016050  -0.002165   0.002533 -68.849900  -5.418040   2.093310 -68.948800  -0.001686  -0.007033 -51.711600   0.003187  -0.007120 -68.506100  -9.317510   3.649960 -103.205000   0.004097  -0.001081 -68.734700   0.007882   0.000796  16.712800  -6.169670  11.045300  63.664700  17.140100  -2.958580  -4.991680  -3.455810  16.901900 -12.940800  -8.349730   4.818020 -39.710600  30.325800  60.635700  28.577500   0.000393  -0.002427   9.288730   0.000708  -0.003452  28.118600   8.095950  14.764400  23.866200  -0.001834   0.001198  16.706400   0.003880  -0.000352  28.307900   2.362420   4.376020  35.103200   0.000199   0.005158  23.378700   0.001728  -0.001669  28.845200   2.402970   4.354010  43.193400  -0.004816  -0.000365  28.766800  -0.000687   0.002548  35.316800   0.165404   0.231296  52.975800  -0.003737  -0.000985  35.281900  -0.001419  -0.001607   3.118390  17.484800   6.718550   1.180260   0.081363   9.256920  -1.520270  -3.832400   3.480280   0.000000   0.000000  -0.000000   3.553980  14.671400   0.201516  -0.544844   2.759340  -4.969460  -0.371523  -3.911280   1.333060  -0.000000   0.000000   0.000000
